<svg xmlns="http://www.w3.org/2000/svg" viewBox="0 0 512 512"><path fill="#4285F4" d="M256 96c-88.4 0-160 71.6-160 160s71.6 160 160 160 160-71.6 160-160S344.4 96 256 96zm0 288c-70.7 0-128-57.3-128-128s57.3-128 128-128 128 57.3 128 128-57.3 128-128 128z"/><circle fill="#EA4335" cx="256" cy="256" r="48"/><path fill="#FBBC05" d="M256 48V96c88.4 0 160 71.6 160 160h48c0-114.9-93.1-208-208-208z"/><path fill="#34A853" d="M256 464v-48c-88.4 0-160-71.6-160-160H48c0 114.9 93.1 208 208 208z"/><path fill="#4285F4" d="M176 256c0-44.2 35.8-80 80-80V96c-88.4 0-160 71.6-160 160h80z"/><path fill="#EA4335" d="M336 256c0 44.2-35.8 80-80 80v80c88.4 0 160-71.6 160-160h-80z"/><path fill="#FBBC05" d="M192 192l-48-48M320 320l48 48M192 320l-48 48M320 192l48-48" stroke="#FBBC05" stroke-width="16" stroke-linecap="round"/></svg>
