<svg xmlns="http://www.w3.org/2000/svg" viewBox="0 0 512 512"><path fill="#888" d="M256 0C114.6 0 0 114.6 0 256s114.6 256 256 256 256-114.6 256-256S397.4 0 256 0zm0 480C132.3 480 32 379.7 32 256S132.3 32 256 32s224 100.3 224 224-100.3 224-224 224z"/><path fill="#888" d="M352 168.2a16 16 0 0 0-22.6 0L256 241.5l-73.4-73.3a16 16 0 0 0-22.6 22.6l73.3 73.4-73.3 73.4a16 16 0 0 0 22.6 22.6l73.4-73.3 73.4 73.3a16 16 0 0 0 22.6-22.6L278.7 264.2l73.3-73.4a16 16 0 0 0 0-22.6z"/><circle fill="#888" cx="256" cy="128" r="32"/><circle fill="#888" cx="256" cy="384" r="32"/><circle fill="#888" cx="128" cy="256" r="32"/><circle fill="#888" cx="384" cy="256" r="32"/><path fill="#888" d="M256 160c-53 0-96 43-96 96s43 96 96 96 96-43 96-96-43-96-96-96zm0 160c-35.3 0-64-28.7-64-64s28.7-64 64-64 64 28.7 64 64-28.7 64-64 64z"/></svg>
