<svg xmlns="http://www.w3.org/2000/svg" viewBox="0 0 512 512"><g fill="#F37726"><path d="M256 45.2c-6.6 0-12 5.4-12 12s5.4 12 12 12 12-5.4 12-12-5.4-12-12-12z"/><path d="M410.1 109.1c-36.4-42.2-88.4-68.5-146.1-72.6v30.1c47.3 4 89.8 26 120.3 60.3 35.4 39.8 51.6 92.4 44.5 144.1-7.1 51.7-36.5 96.5-80.7 126.2-35.6 23.9-77.5 34.7-119 30.7v30.1c48.5 4.5 97.5-7 139.3-33.1 50.8-31.7 85.3-82.2 97.1-142.2 11.9-60-5.1-121.6-46.8-173.6h-9.6z"/></g><g fill="#989898"><path d="M156 70.8c-6 3.2-8.3 10.7-5.1 16.7 3.2 6 10.7 8.3 16.7 5.1 6-3.2 8.3-10.7 5.1-16.7-3.2-6-10.7-8.3-16.7-5.1z"/><path d="M117.2 422c4.8 4 11.9 3.4 15.9-1.4 4-4.8 3.4-11.9-1.4-15.9-4.8-4-11.9-3.4-15.9 1.4-4 4.8-3.4 11.9 1.4 15.9z"/></g><path fill="#F37726" d="M101.9 109.1C60.2 161.1 43.2 222.7 55.1 282.7c11.9 60 46.3 110.5 97.1 142.2 41.8 26.1 90.8 37.6 139.3 33.1v-30.1c-41.5 4-83.4-6.8-119-30.7-44.2-29.7-73.6-74.5-80.7-126.2-7.1-51.7 9.1-104.3 44.5-144.1C166.8 92.6 209.3 70.6 256.6 66.6V36.5c-57.7 4.1-109.7 30.4-146.1 72.6h-8.6z"/><path fill="#6F6F6F" d="M365.5 443.5c-5.5-3.8-13-2.4-16.8 3.1-3.8 5.5-2.4 13 3.1 16.8 5.5 3.8 13 2.4 16.8-3.1 3.8-5.5 2.4-13-3.1-16.8z"/></svg>
