<svg xmlns="http://www.w3.org/2000/svg" viewBox="0 0 512 512"><defs><linearGradient id="a" x1="12.959%" x2="79.639%" y1="12.039%" y2="78.201%"><stop offset="0%" stop-color="#387EB8"/><stop offset="100%" stop-color="#366994"/></linearGradient><linearGradient id="b" x1="19.128%" x2="90.742%" y1="20.579%" y2="88.429%"><stop offset="0%" stop-color="#FFE052"/><stop offset="100%" stop-color="#FFC331"/></linearGradient></defs><path fill="url(#a)" d="M254.5 28.1c-123.3 0-115.6 53.5-115.6 53.5l.1 55.4h117.6v16.6H121.2S28 144.7 28 269.3s81.3 120.2 81.3 120.2h48.5V331c0-57.5 49.7-108.2 108.2-108.2h108.2c53.5 0 80.8-39.2 80.8-80.8V81.6S468.3 28.1 254.5 28.1zM187.5 82a30.2 30.2 0 1 1 0 60.4 30.2 30.2 0 0 1 0-60.4z"/><path fill="url(#b)" d="M257.5 483.9c123.3 0 115.6-53.5 115.6-53.5l-.1-55.4H255.4v-16.6h135.4S484 367.3 484 242.7s-81.3-120.2-81.3-120.2h-48.5V181c0 57.5-49.7 108.2-108.2 108.2H137.8c-53.5 0-80.8 39.2-80.8 80.8v60.4s-13.3 53.5 200.5 53.5zm67-53.9a30.2 30.2 0 1 1 0-60.4 30.2 30.2 0 0 1 0 60.4z"/></svg>
